<svg xmlns="http://www.w3.org/2000/svg" xmlns:xlink="http://www.w3.org/1999/xlink" width="500" zoomAndPan="magnify" viewBox="0 0 375 374.999991" height="500" preserveAspectRatio="xMidYMid meet" version="1.0"><defs><g/><clipPath id="b3b93b6558"><path d="M 0 0 L 373.691406 0 L 373.691406 373.691406 L 0 373.691406 Z M 0 0 " clip-rule="nonzero"/></clipPath><clipPath id="4616e35bfe"><path d="M 47.996094 37.789062 L 98 37.789062 L 98 87.960938 L 47.996094 87.960938 Z M 47.996094 37.789062 " clip-rule="nonzero"/></clipPath><clipPath id="089bdc868b"><path d="M 280.707031 37.789062 L 330.878906 37.789062 L 330.878906 87.960938 L 280.707031 87.960938 Z M 280.707031 37.789062 " clip-rule="nonzero"/></clipPath><clipPath id="01ba2e0302"><path d="M 280.707031 271.742188 L 330.878906 271.742188 L 330.878906 321.917969 L 280.707031 321.917969 Z M 280.707031 271.742188 " clip-rule="nonzero"/></clipPath><clipPath id="7b937dd26c"><path d="M 47.996094 271.742188 L 98 271.742188 L 98 321.917969 L 47.996094 321.917969 Z M 47.996094 271.742188 " clip-rule="nonzero"/></clipPath></defs><rect x="-37.5" width="450" fill="#ffffff" y="-37.499999" height="449.999989" fill-opacity="1"/><rect x="-37.5" width="450" fill="#ffffff" y="-37.499999" height="449.999989" fill-opacity="1"/><rect x="-37.5" width="450" fill="#ffffff" y="-37.499999" height="449.999989" fill-opacity="1"/><rect x="-37.5" width="450" fill="#ebba16" y="-37.499999" height="449.999989" fill-opacity="1"/><g clip-path="url(#b3b93b6558)"><path stroke-linecap="butt" transform="matrix(3.295605, 0, 0, 3.295605, 0.0000045, 0.000000000000258474)" fill="none" stroke-linejoin="miter" d="M -0.00000136545 -0.00000000000007843 L 113.390842 -0.00000000000007843 L 113.390842 113.390843 L -0.00000136545 113.390843 L -0.00000136545 -0.00000000000007843 " stroke="#cc933d" stroke-width="1.360751" stroke-opacity="1" stroke-miterlimit="4"/></g><g clip-path="url(#4616e35bfe)"><path fill="#ffffff" d="M 47.996094 37.789062 L 97.601562 37.789062 L 97.601562 87.390625 L 47.996094 87.390625 Z M 47.996094 37.789062 " fill-opacity="1" fill-rule="nonzero"/></g><g clip-path="url(#089bdc868b)"><path fill="#ffffff" d="M 280.707031 37.789062 L 330.3125 37.789062 L 330.3125 87.390625 L 280.707031 87.390625 Z M 280.707031 37.789062 " fill-opacity="1" fill-rule="nonzero"/></g><g clip-path="url(#01ba2e0302)"><path fill="#ffffff" d="M 280.707031 271.742188 L 330.3125 271.742188 L 330.3125 321.347656 L 280.707031 321.347656 Z M 280.707031 271.742188 " fill-opacity="1" fill-rule="nonzero"/></g><g clip-path="url(#7b937dd26c)"><path fill="#ffffff" d="M 47.996094 271.742188 L 97.601562 271.742188 L 97.601562 321.347656 L 47.996094 321.347656 Z M 47.996094 271.742188 " fill-opacity="1" fill-rule="nonzero"/></g><g fill="#dc691d" fill-opacity="1"><g transform="translate(116.451369, 268.123015)"><g><path d="M 105.640625 0 L 67.0625 0 L 67.0625 -105.640625 L 67.4375 -123 L 68.046875 -141.984375 C 61.640625 -135.566406 57.1875 -131.359375 54.6875 -129.359375 L 33.71875 -112.515625 L 15.109375 -135.734375 L 73.921875 -182.5625 L 105.640625 -182.5625 Z M 105.640625 0 "/></g></g></g></svg>