<svg xmlns="http://www.w3.org/2000/svg" xmlns:xlink="http://www.w3.org/1999/xlink" width="500" zoomAndPan="magnify" viewBox="0 0 375 374.999991" height="500" preserveAspectRatio="xMidYMid meet" version="1.0"><defs><g/><clipPath id="2c6b7e1196"><path d="M 0 0 L 373.691406 0 L 373.691406 373.691406 L 0 373.691406 Z M 0 0 " clip-rule="nonzero"/></clipPath><clipPath id="3c36bf6fb8"><path d="M 47.996094 37.789062 L 98 37.789062 L 98 87.960938 L 47.996094 87.960938 Z M 47.996094 37.789062 " clip-rule="nonzero"/></clipPath><clipPath id="646d7c45b9"><path d="M 280.707031 37.789062 L 330.878906 37.789062 L 330.878906 87.960938 L 280.707031 87.960938 Z M 280.707031 37.789062 " clip-rule="nonzero"/></clipPath><clipPath id="a2fc20a9fb"><path d="M 280.707031 271.742188 L 330.878906 271.742188 L 330.878906 321.917969 L 280.707031 321.917969 Z M 280.707031 271.742188 " clip-rule="nonzero"/></clipPath><clipPath id="8aa040ea6e"><path d="M 47.996094 271.742188 L 98 271.742188 L 98 321.917969 L 47.996094 321.917969 Z M 47.996094 271.742188 " clip-rule="nonzero"/></clipPath></defs><rect x="-37.5" width="450" fill="#ffffff" y="-37.499999" height="449.999989" fill-opacity="1"/><rect x="-37.5" width="450" fill="#ffffff" y="-37.499999" height="449.999989" fill-opacity="1"/><rect x="-37.5" width="450" fill="#ebba16" y="-37.499999" height="449.999989" fill-opacity="1"/><g clip-path="url(#2c6b7e1196)"><path stroke-linecap="butt" transform="matrix(3.295605, 0, 0, 3.295605, 0.0000045, 0)" fill="none" stroke-linejoin="miter" d="M -0.00000136545 0 L 113.390842 0 L 113.390842 113.390843 L -0.00000136545 113.390843 L -0.00000136545 0 " stroke="#cc933d" stroke-width="1.360751" stroke-opacity="1" stroke-miterlimit="4"/></g><g clip-path="url(#3c36bf6fb8)"><path fill="#ffffff" d="M 47.996094 37.789062 L 97.601562 37.789062 L 97.601562 87.390625 L 47.996094 87.390625 Z M 47.996094 37.789062 " fill-opacity="1" fill-rule="nonzero"/></g><g clip-path="url(#646d7c45b9)"><path fill="#ffffff" d="M 280.707031 37.789062 L 330.3125 37.789062 L 330.3125 87.390625 L 280.707031 87.390625 Z M 280.707031 37.789062 " fill-opacity="1" fill-rule="nonzero"/></g><g clip-path="url(#a2fc20a9fb)"><path fill="#ffffff" d="M 280.707031 271.742188 L 330.3125 271.742188 L 330.3125 321.347656 L 280.707031 321.347656 Z M 280.707031 271.742188 " fill-opacity="1" fill-rule="nonzero"/></g><g clip-path="url(#8aa040ea6e)"><path fill="#ffffff" d="M 47.996094 271.742188 L 97.601562 271.742188 L 97.601562 321.347656 L 47.996094 321.347656 Z M 47.996094 271.742188 " fill-opacity="1" fill-rule="nonzero"/></g><g fill="#dc691d" fill-opacity="1"><g transform="translate(116.451369, 268.123015)"><g><path d="M 137.859375 0 L 10.234375 0 L 10.234375 -26.84375 L 56.0625 -73.171875 C 69.632812 -87.078125 78.5 -96.710938 82.65625 -102.078125 C 86.820312 -107.453125 89.820312 -112.425781 91.65625 -117 C 93.488281 -121.582031 94.40625 -126.328125 94.40625 -131.234375 C 94.40625 -138.566406 92.382812 -144.019531 88.34375 -147.59375 C 84.3125 -151.175781 78.921875 -152.96875 72.171875 -152.96875 C 65.097656 -152.96875 58.226562 -151.34375 51.5625 -148.09375 C 44.90625 -144.84375 37.957031 -140.222656 30.71875 -134.234375 L 9.734375 -159.078125 C 18.722656 -166.742188 26.171875 -172.15625 32.078125 -175.3125 C 37.992188 -178.476562 44.445312 -180.914062 51.4375 -182.625 C 58.4375 -184.332031 66.265625 -185.1875 74.921875 -185.1875 C 86.328125 -185.1875 96.398438 -183.101562 105.140625 -178.9375 C 113.878906 -174.78125 120.660156 -168.953125 125.484375 -161.453125 C 130.316406 -153.960938 132.734375 -145.390625 132.734375 -135.734375 C 132.734375 -127.328125 131.253906 -119.4375 128.296875 -112.0625 C 125.347656 -104.695312 120.769531 -97.144531 114.5625 -89.40625 C 108.363281 -81.664062 97.441406 -70.632812 81.796875 -56.3125 L 58.3125 -34.21875 L 58.3125 -32.46875 L 137.859375 -32.46875 Z M 137.859375 0 "/></g></g></g></svg>