<svg xmlns="http://www.w3.org/2000/svg" xmlns:xlink="http://www.w3.org/1999/xlink" width="500" zoomAndPan="magnify" viewBox="0 0 375 374.999991" height="500" preserveAspectRatio="xMidYMid meet" version="1.0"><defs><clipPath id="c1ce6810bc"><path d="M 0 0 L 373.691406 0 L 373.691406 373.691406 L 0 373.691406 Z M 0 0 " clip-rule="nonzero"/></clipPath><clipPath id="09ea93b87b"><path d="M 47.996094 37.789062 L 98 37.789062 L 98 87.960938 L 47.996094 87.960938 Z M 47.996094 37.789062 " clip-rule="nonzero"/></clipPath><clipPath id="8d80a5fcf1"><path d="M 280.707031 37.789062 L 330.878906 37.789062 L 330.878906 87.960938 L 280.707031 87.960938 Z M 280.707031 37.789062 " clip-rule="nonzero"/></clipPath><clipPath id="ef18a9bb96"><path d="M 280.707031 271.742188 L 330.878906 271.742188 L 330.878906 321.917969 L 280.707031 321.917969 Z M 280.707031 271.742188 " clip-rule="nonzero"/></clipPath><clipPath id="b0b33ea5c6"><path d="M 47.996094 271.742188 L 98 271.742188 L 98 321.917969 L 47.996094 321.917969 Z M 47.996094 271.742188 " clip-rule="nonzero"/></clipPath></defs><rect x="-37.5" width="450" fill="#ffffff" y="-37.499999" height="449.999989" fill-opacity="1"/><rect x="-37.5" width="450" fill="#ffffff" y="-37.499999" height="449.999989" fill-opacity="1"/><rect x="-37.5" width="450" fill="#ebba16" y="-37.499999" height="449.999989" fill-opacity="1"/><g clip-path="url(#c1ce6810bc)"><path stroke-linecap="butt" transform="matrix(3.295605, 0, 0, 3.295605, 0.0000045, 0)" fill="none" stroke-linejoin="miter" d="M -0.00000136545 0 L 113.390842 0 L 113.390842 113.390843 L -0.00000136545 113.390843 L -0.00000136545 0 " stroke="#cc933d" stroke-width="1.360751" stroke-opacity="1" stroke-miterlimit="4"/></g><g clip-path="url(#09ea93b87b)"><path fill="#ffffff" d="M 47.996094 37.789062 L 97.601562 37.789062 L 97.601562 87.390625 L 47.996094 87.390625 Z M 47.996094 37.789062 " fill-opacity="1" fill-rule="nonzero"/></g><g clip-path="url(#8d80a5fcf1)"><path fill="#ffffff" d="M 280.707031 37.789062 L 330.3125 37.789062 L 330.3125 87.390625 L 280.707031 87.390625 Z M 280.707031 37.789062 " fill-opacity="1" fill-rule="nonzero"/></g><g clip-path="url(#ef18a9bb96)"><path fill="#ffffff" d="M 280.707031 271.742188 L 330.3125 271.742188 L 330.3125 321.347656 L 280.707031 321.347656 Z M 280.707031 271.742188 " fill-opacity="1" fill-rule="nonzero"/></g><g clip-path="url(#b0b33ea5c6)"><path fill="#ffffff" d="M 47.996094 271.742188 L 97.601562 271.742188 L 97.601562 321.347656 L 47.996094 321.347656 Z M 47.996094 271.742188 " fill-opacity="1" fill-rule="nonzero"/></g></svg>